<?xml version="1.0" standalone="no"?><!DOCTYPE svg PUBLIC "-//W3C//DTD SVG 1.1//EN" "http://www.w3.org/Graphics/SVG/1.1/DTD/svg11.dtd"><svg t="1579059962556" class="icon" viewBox="0 0 1024 1024" version="1.1" xmlns="http://www.w3.org/2000/svg" p-id="5073" xmlns:xlink="http://www.w3.org/1999/xlink" width="200" height="200"><defs><style type="text/css"></style></defs><path d="M785.196899 160.14726l-545.289652 0c-42.847834 0-77.941062 35.027736-77.941062 77.932876l0 545.240534c0 42.838625 35.093228 77.932876 77.941062 77.932876l545.289652 0c42.790529 0 77.882734-35.093228 77.882734-77.932876l0-545.240534C863.079633 195.174996 827.987429 160.14726 785.196899 160.14726M785.196899 627.554179l-155.823796 0c0 66.185332-50.602441 116.853265-116.845078 116.853265-66.185332 0-116.853265-50.667932-116.853265-116.853265l-155.766491 0 0-389.474043 545.289652 0L785.197923 627.554179zM668.351821 432.759852l-77.882734 0 0-116.846101-155.824819 0 0 116.846101-77.882734 0 155.766491 155.882124L668.351821 432.759852z" p-id="5074" fill="#8a8a8a"></path></svg>